<?xml version="1.0" encoding="utf-8"?>
<!-- Svg Vector Icons : http://www.onlinewebfonts.com/icon -->
<!DOCTYPE svg PUBLIC "-//W3C//DTD SVG 1.1//EN" "http://www.w3.org/Graphics/SVG/1.1/DTD/svg11.dtd">
<svg version="1.1" xmlns="http://www.w3.org/2000/svg" xmlns:xlink="http://www.w3.org/1999/xlink" x="0px" y="0px" viewBox="0 0 1000 1000" enable-background="new 0 0 1000 1000" xml:space="preserve">
<metadata> Svg Vector Icons : http://www.onlinewebfonts.com/icon </metadata>
<g><path d="M704.2,173.3V91.7c0-45.1-36.6-81.7-81.7-81.7h-245c-45.1,0-81.7,36.6-81.7,81.7v81.7h-245V255h81.7v653.3c0,45.1,36.6,81.7,81.7,81.7h571.7c45.1,0,81.7-36.6,81.7-81.7V255h81.7v-81.7H704.2z M377.5,91.7h245v81.7h-245V91.7z M785.8,908.3H214.2V255h571.7V908.3z"/><path d="M295.8,663.3V336.7h81.7v490h-81.7V663.3z"/><path d="M459.2,336.7h81.7v490h-81.7V336.7z"/><path d="M622.5,336.7h81.7v490h-81.7V336.7z"/></g>
</svg>