<?xml version="1.0" encoding="utf-8"?>
<!-- Svg Vector Icons : http://www.onlinewebfonts.com/icon -->
<!DOCTYPE svg PUBLIC "-//W3C//DTD SVG 1.1//EN" "http://www.w3.org/Graphics/SVG/1.1/DTD/svg11.dtd">
<svg version="1.1" xmlns="http://www.w3.org/2000/svg" xmlns:xlink="http://www.w3.org/1999/xlink" x="0px" y="0px" viewBox="0 0 1000 1000" enable-background="new 0 0 1000 1000" xml:space="preserve">
<metadata> Svg Vector Icons : http://www.onlinewebfonts.com/icon </metadata>
<g><g><path d="M962.1,389.6l-54.6,54.6L755.2,292l54.7-54.6c17.2-17.2,43.1-19.3,57.7-4.8l99.3,99.3C981.4,346.5,979.3,372.4,962.1,389.6z M729.8,317.4l152.2,152.2l-363,363c-1.7,1.7-6.3,6.3-12.8,7.9c-0.7,0.4-1.5,0.7-2.3,0.9l-189.5,60.4c-5.3,1.7-10.6,0.6-14.1-2.9c-3.5-3.5-4.5-8.8-2.9-14.1L358,695.5c0.3-0.8,0.6-1.5,0.9-2.3c1.7-6.5,6.3-11.1,8-12.8l68.2-68.2H204.6c-9.3,0-16.8-7.5-16.8-16.8c0-9.3,7.5-16.8,16.8-16.8h264.1L729.8,317.4z M472.2,820.9l-93.7-93.7l-25.1,78.9l39.9,40L472.2,820.9z M724,377.9c-5.4-5.4-14.1-5.4-19.5,0l-283,283c-5.4,5.4-5.4,14.1,0,19.5c5.4,5.4,14.1,5.4,19.5,0l283-283C729.4,392,729.4,383.3,724,377.9z M706.9,916.6c0,10.1-8.2,18.3-18.3,18.3H354.6l-30.2,9.6c-6.1,1.9-12.3,2.9-18.5,2.9c-13.3,0-25.6-4.5-35.7-12.5H96.9c-10.1,0-18.4-8.2-18.4-18.3V146.1c0-10.1,8.2-18.3,18.4-18.3h68.8v29c0,10.1,8.2,18.3,18.4,18.3c10.1,0,18.3-8.2,18.3-18.3v-29.1h105.5v29.1c0,10.1,8.2,18.3,18.3,18.3c10.1,0,18.4-8.2,18.4-18.3v-29.1h91.7v29.1c0,10.1,8.2,18.3,18.4,18.3c10.1,0,18.3-8.2,18.3-18.3v-29.1h100.9v29.1c0,10.1,8.2,18.3,18.3,18.3c10.1,0,18.4-8.2,18.4-18.3v-29.1h78c10.1,0,18.3,8.2,18.3,18.3v127.1l19.2-19.2l35.8-35.8v-72c0-40.5-32.9-73.4-73.4-73.4h-78V28.4c0-10.1-8.2-18.4-18.4-18.4c-10.1,0-18.3,8.2-18.3,18.4v44.3H473V28.4c0-10.1-8.2-18.4-18.3-18.4c-10.1,0-18.4,8.2-18.4,18.4v44.3h-91.7V28.4c0-10.1-8.2-18.4-18.4-18.4c-10.1,0-18.3,8.2-18.3,18.4v44.3H202.4V28.4c0-10.1-8.2-18.4-18.3-18.4c-10.1,0-18.4,8.2-18.4,18.4v44.3H96.9c-40.5,0-73.4,32.9-73.4,73.4v770.5c0,40.5,32.9,73.4,73.4,73.4h591.7c40.5,0,73.4-32.9,73.4-73.4V649.5l-55,55.1L706.9,916.6L706.9,916.6L706.9,916.6z M563.6,292.5H204.6c-9.3,0-16.8,7.5-16.8,16.8c0,9.3,7.5,16.8,16.8,16.8h358.9c9.3,0,16.8-7.5,16.8-16.8C580.4,300,572.9,292.5,563.6,292.5z M563.6,428.2H204.6c-9.3,0-16.8,7.5-16.8,16.8c0,9.3,7.5,16.8,16.8,16.8h358.9c9.3,0,16.8-7.5,16.8-16.8C580.4,435.7,572.9,428.2,563.6,428.2z"/></g><g></g><g></g><g></g><g></g><g></g><g></g><g></g><g></g><g></g><g></g><g></g><g></g><g></g><g></g><g></g></g>
</svg>