<?xml version="1.0" encoding="utf-8"?>
<!-- Svg Vector Icons : http://www.onlinewebfonts.com/icon -->
<!DOCTYPE svg PUBLIC "-//W3C//DTD SVG 1.1//EN" "http://www.w3.org/Graphics/SVG/1.1/DTD/svg11.dtd">
<svg version="1.1" xmlns="http://www.w3.org/2000/svg" xmlns:xlink="http://www.w3.org/1999/xlink" x="0px" y="0px" viewBox="0 0 1000 1000" enable-background="new 0 0 1000 1000" xml:space="preserve">
<metadata> Svg Vector Icons : http://www.onlinewebfonts.com/icon </metadata>
<g><path d="M836.9,928.9H163.1C78.7,928.9,10,859.2,10,773.4V338c0-17.2,13.7-31.1,30.6-31.1c16.9,0,30.6,13.9,30.6,31.1v435.4c0,51.5,41.2,93.3,91.9,93.3h673.7c50.7,0,91.9-41.9,91.9-93.3V338c0-17.2,13.7-31.1,30.6-31.1c16.9,0,30.6,13.9,30.6,31.1v435.4C990,859.2,921.3,928.9,836.9,928.9z"/><path d="M500,146.1l108.6,110.3c-28.2,16-47.4,46.5-47.4,81.6v155.5H438.7V338c0-35.1-19.1-65.7-47.4-81.6L500,146.1 M500,71.1c-7.8,0-15.7,3-21.6,9L276.7,284.9c-11.9,12.1-7.9,22,9,22h61.2c16.9,0,30.6,14,30.6,31.1v186.6c0,17.1,13.8,31.1,30.6,31.1h183.7c16.9,0,30.6-14,30.6-31.1V338c0-17.1,13.8-31.1,30.6-31.1h61.2c16.9,0,20.9-9.9,9-22L521.6,80.1C515.7,74.1,507.8,71.1,500,71.1L500,71.1z"/><path d="M622.5,649c0,17.1-13.7,31.1-30.6,31.1c-16.9,0-30.6-14-30.6-31.1c0-17.3,13.7-31.1,30.6-31.1C608.8,617.9,622.5,631.8,622.5,649z"/><path d="M438.7,649c0,17.1-13.7,31.1-30.6,31.1c-16.9,0-30.6-14-30.6-31.1c0-17.3,13.7-31.1,30.6-31.1C425.1,617.9,438.7,631.8,438.7,649z"/><path d="M408.1,617.9h183.7v62.2H408.1V617.9L408.1,617.9z"/></g>
</svg>