<?xml version="1.0" encoding="utf-8"?>
<!-- Svg Vector Icons : http://www.onlinewebfonts.com/icon -->
<!DOCTYPE svg PUBLIC "-//W3C//DTD SVG 1.1//EN" "http://www.w3.org/Graphics/SVG/1.1/DTD/svg11.dtd">
<svg version="1.1" xmlns="http://www.w3.org/2000/svg" xmlns:xlink="http://www.w3.org/1999/xlink" x="0px" y="0px" viewBox="0 0 1000 1000" enable-background="new 0 0 1000 1000" xml:space="preserve">
<metadata> Svg Vector Icons : http://www.onlinewebfonts.com/icon </metadata>
<g><path d="M951.6,310c-25.7-59.5-60.7-111.6-105-156.2C802.3,109.2,750.3,74,690.7,48.4C631.1,22.8,567.7,10,500.5,10c-67.9,0-131.6,12.8-191.2,38.4C249.7,74,197.8,109.2,153.4,153.8C109.1,198.4,74.1,250.5,48.5,310C22.8,369.5,10,432.9,10,500c0,67.8,12.8,131.5,38.5,191c25.6,59.5,60.6,111.4,104.9,155.7c44.4,44.3,96.4,79.3,155.9,104.9c59.6,25.6,123.3,38.4,191.2,38.4c67.2,0,130.6-12.8,190.2-38.4C750.3,926,802.3,891,846.6,846.7c44.3-44.3,79.3-96.2,105-155.7c25.7-59.5,38.4-123.2,38.4-191C990,432.9,977.2,369.5,951.6,310L951.6,310z M848.5,647.4c-19.8,45.9-46.8,86-81,120.2c-34.2,34.2-74.3,61.2-120.3,80.9c-45.9,19.8-94.9,29.6-146.7,29.6c-52.4,0-101.6-9.9-147.6-29.6c-46-19.7-86.1-46.7-120.3-80.9c-34.2-34.2-61.2-74.3-81-120.2c-19.8-45.9-29.7-95.1-29.7-147.4c0-51.8,9.9-100.7,29.7-146.6c19.8-45.9,46.8-86.1,81-120.6c34.3-34.5,74.4-61.6,120.3-81.3c46-19.7,95.2-29.6,147.6-29.6c51.8,0,100.8,9.9,146.7,29.6c46,19.8,86.1,46.9,120.3,81.3c34.2,34.4,61.2,74.6,81,120.6c19.8,45.9,29.7,94.8,29.7,146.6C878.1,552.3,868.3,601.5,848.5,647.4L848.5,647.4z M508.9,677.6c-15.1,0-27.7,4.9-37.8,14.7c-10.1,9.8-15.2,22-15.2,36.5c0,14.1,5.1,26,15.2,35.8c10.1,9.8,22.7,14.7,37.8,14.7c14.5,0,26.8-4.9,36.9-14.7c10.1-9.8,15.2-21.7,15.2-35.8c0-14.6-5.1-26.7-15.2-36.5C535.7,682.5,523.4,677.6,508.9,677.6L508.9,677.6z M611.5,309.2c-14-14.6-32-26.6-54-36.2c-22.1-9.5-48.6-14.3-79.8-14.3c-36.3,0-65.2,6.2-86.7,18.4c-21.5,12.3-37.9,27.3-49,44.8c-11.2,17.6-18.4,35.8-21.8,54.6c-3.4,18.9-5,34.8-5,47.8c0,12,5.2,20.6,15.6,25.6c10.3,5,21.6,7.1,33.8,6.4c12.2-0.7,23.4-4.3,33.9-10.6c10.3-6.3,15.6-14.7,15.6-25.2c0-6.5,0.3-13.8,1.1-21.8c0.8-8.1,3.4-15.7,7.8-23c4.5-7.3,11.1-13.4,19.9-18.1c8.8-4.8,21-7.1,36.6-7.1c24.4,0,43.7,6.5,57.9,19.5c14.3,13.1,21.4,28.4,21.4,46c0,14.6-5.1,28.6-15.2,42.2c-10.1,13.5-21.1,26-33.1,37.3c-12,11.3-23,21.3-33.1,30.1c-10.1,8.8-15.2,15.7-15.2,20.7v55c0,4.5,5.1,7.9,15.2,10.1c10.1,2.3,21.1,3.3,33.1,3c11.9-0.2,22.9-1.6,33.1-4.1c10.1-2.5,15.2-6.5,15.2-12v-24.1l0,0c0-6.6,4.8-14.3,14.4-23.4c9.6-9.1,20.2-20.2,31.9-33.5c11.7-13.4,22.4-28.9,32.3-46.7C647,452.9,652,432,652,407.8c0-16.1-3.3-32.9-9.8-50.5C635.8,339.8,625.6,323.7,611.5,309.2L611.5,309.2z"/></g>
</svg>