<?xml version="1.0" encoding="utf-8"?>
<!-- Svg Vector Icons : http://www.onlinewebfonts.com/icon -->
<!DOCTYPE svg PUBLIC "-//W3C//DTD SVG 1.1//EN" "http://www.w3.org/Graphics/SVG/1.1/DTD/svg11.dtd">
<svg version="1.1" xmlns="http://www.w3.org/2000/svg" xmlns:xlink="http://www.w3.org/1999/xlink" x="0px" y="0px" viewBox="0 0 1000 1000" enable-background="new 0 0 1000 1000" xml:space="preserve">
<metadata> Svg Vector Icons : http://www.onlinewebfonts.com/icon </metadata>
<g><path d="M836.9,928.9H163.1C78.7,928.9,10,860.2,10,775.7V346.8c0-16.9,13.7-30.6,30.6-30.6c16.9,0,30.6,13.7,30.6,30.6v428.9c0,50.7,41.2,91.9,91.9,91.9h673.8c50.7,0,91.9-41.2,91.9-91.9V346.8c0-16.9,13.7-30.6,30.6-30.6c16.9,0,30.6,13.7,30.6,30.6v428.9C990,860.2,921.3,928.9,836.9,928.9z"/><path d="M500,597.2L391.4,488.5c28.2-15.7,47.4-45.8,47.4-80.4V254.9h122.5v153.2c0,34.6,19.1,64.7,47.4,80.4L500,597.2 M500,671.1c7.8,0,15.7-2.9,21.7-8.9l201.7-201.8c11.9-11.9,7.9-21.7-9-21.7h-61.3c-16.9,0-30.6-13.8-30.6-30.6V224.3c0-16.9-13.8-30.6-30.6-30.6H408.1c-16.9,0-30.6,13.8-30.6,30.6v183.8c0,16.9-13.8,30.6-30.6,30.6h-61.3c-16.9,0-20.9,9.8-9,21.7l201.7,201.8C484.3,668.1,492.2,671.1,500,671.1L500,671.1z"/><path d="M377.5,101.7c0-16.9,13.7-30.6,30.6-30.6c16.9,0,30.6,13.8,30.6,30.6c0,17-13.7,30.6-30.6,30.6C391.2,132.4,377.5,118.7,377.5,101.7z"/><path d="M561.3,101.7c0-16.9,13.7-30.6,30.6-30.6c16.9,0,30.6,13.8,30.6,30.6c0,17-13.7,30.6-30.6,30.6C575,132.4,561.3,118.7,561.3,101.7z"/><path d="M408.1,71.1h183.8v61.3H408.1V71.1z"/></g>
</svg>