<?xml version="1.0" encoding="utf-8"?>
<!-- Svg Vector Icons : http://www.onlinewebfonts.com/icon -->
<!DOCTYPE svg PUBLIC "-//W3C//DTD SVG 1.1//EN" "http://www.w3.org/Graphics/SVG/1.1/DTD/svg11.dtd">
<svg version="1.1" xmlns="http://www.w3.org/2000/svg" xmlns:xlink="http://www.w3.org/1999/xlink" x="0px" y="0px" viewBox="0 0 1000 1000" enable-background="new 0 0 1000 1000" xml:space="preserve">
<metadata> Svg Vector Icons : http://www.onlinewebfonts.com/icon </metadata>
<g><path d="M933.3,769.7c22.7,23.5,39.3,45,49.9,64.6c10.6,19.6,8.8,41.9-5.3,66.9c-3.1,4.7-7.4,10.4-12.9,17c-5.5,6.6-11.1,13.1-17,19.4c-5.9,6.3-11.7,11.9-17.6,17c-5.9,5.1-10.8,8.8-14.7,11.1c-19.6,11.7-42.6,14.9-69.3,9.4c-26.6-5.5-50.5-18.8-71.6-39.9l-49.3-49.3l-65.7-65.7l-77.5-77.5l-84.5-84.5L347.6,808.4c-46.2,46.2-83.7,84.1-112.7,113.9c-29.7,29.7-59.3,48.1-88.6,55.2c-29.3,7-55.4,0.4-78.1-20l-8.2-8.2l-12.9-12.9l-12.9-12.9c-4.7-4.7-7.4-7.8-8.2-9.4c-8.6-11-13.7-22.1-15.3-33.5c-1.6-11.3-0.6-22.5,2.9-33.5c3.5-11,8.8-21.5,15.8-31.7c7-10.2,14.9-19.6,23.5-28.2c7-6.3,19.6-18,37.6-35.2l63.4-65.7c25.8-25,54.6-53.2,86.3-84.5c31.7-31.3,64.8-64.2,99.2-98.6C301.8,465.6,266,430,232,396.4c-34-33.6-64.6-63.8-91.6-90.4c-27-26.6-49.1-48.3-66.3-65.1c-17.2-16.8-27.8-27.2-31.7-31.1c-20.3-20.3-30.7-40.5-31.1-60.4c-0.4-20,6.5-40.1,20.5-60.4c6.3-7.8,15.3-17,27-27.6c11.7-10.6,20-17.4,24.7-20.5c23.5-15.7,44.6-22.5,63.4-20.5c18.8,2,37.6,12.7,56.3,32.3l36.4,36.4c18,18,40.3,39.9,66.9,65.7c26.6,25.8,56.5,55,89.8,87.4c33.3,32.5,67.9,66.3,103.9,101.5c29.7-29.7,58.9-58.7,87.4-86.9c28.6-28.2,55.2-54.6,79.8-79.2c24.6-24.7,47-46.8,66.9-66.3c20-19.6,36.6-36,49.9-49.3c18.8-18,39.1-29.9,61-35.8s43-1,63.4,14.7c0.8,0.8,3.3,2.7,7.6,5.9c4.3,3.1,8.6,6.6,12.9,10.6c4.3,3.9,8.4,7.6,12.3,11.2c3.9,3.5,6.7,5.7,8.2,6.5c21.1,20.3,31.5,42.5,31.1,66.3c-0.4,23.9-10.8,46-31.1,66.3c-14.1,14.1-31.5,31.7-52.2,52.8c-20.7,21.1-43.8,44.2-69.3,69.3c-25.4,25-52.2,51.6-80.4,79.8l-89.2,89.2c28.9,28.2,57.3,55.8,85.1,82.7c27.8,27,53.6,52.2,77.5,75.7c23.9,23.5,45.4,45,64.6,64.6C905,741.1,920.8,757.1,933.3,769.7L933.3,769.7z"/></g>
</svg>