<?xml version="1.0" encoding="utf-8"?>
<!-- Svg Vector Icons : http://www.onlinewebfonts.com/icon -->
<!DOCTYPE svg PUBLIC "-//W3C//DTD SVG 1.1//EN" "http://www.w3.org/Graphics/SVG/1.1/DTD/svg11.dtd">
<svg version="1.1" xmlns="http://www.w3.org/2000/svg" xmlns:xlink="http://www.w3.org/1999/xlink" x="0px" y="0px" viewBox="0 0 1000 1000" enable-background="new 0 0 1000 1000" xml:space="preserve">
<metadata> Svg Vector Icons : http://www.onlinewebfonts.com/icon </metadata>
<g><g transform="translate(0.000000,512.000000) scale(0.100000,-0.100000)"><path d="M794.8,5004.5c-340.7-51.7-625.9-342.6-675.7-692.9C107.7,4242.7,100,2788,100,918c0-3495.1-1.9-3418.5,91.9-3600.3c99.5-193.3,279.5-348.4,476.6-409.6c120.6-36.4,174.2-38.3,1816.4-38.3h1692v402v402H2540.4H903.9v3273v3273h1546.6l1544.7-1.9l913-1096.8L5823,2022.4v-336.9v-336.9h402h402v379c0,421.1-19.1,543.6-112.9,694.8c-30.6,47.9-486.2,606.8-1014.4,1240.3C4487,4876.3,4473.6,4889.7,4243.9,4977.7c-90,34.4-178,36.4-1722.7,38.3C1627.4,5017.9,850.3,5012.2,794.8,5004.5z"/><path d="M1325,2774.6v-602.9h402h402v602.9v602.9h-402h-402V2774.6z"/><path d="M2550,2774.6v-602.9h402h402v602.9v602.9h-402h-402V2774.6z"/><path d="M7048-102.2v-225.9l-157-45.9c-88-24.9-252.7-91.9-367.5-149.3l-206.7-103.4l-157,155l-155,155.1l-283.3-283.3l-281.4-281.4l153.1-153.1c84.2-84.2,153.1-158.9,153.1-164.6c0-7.6-28.7-63.2-63.2-126.3c-86.1-153.1-153.1-317.7-195.2-468.9l-34.4-130.1h-225.9H5000v-402v-402h227.8h227.8l23-99.5c30.6-134,137.8-390.5,210.5-509.1c30.6-51.7,57.4-101.4,57.4-111s-68.9-86.1-153.1-170.4l-153.1-153.1l281.4-281.4l283.3-283.3l157,157l155,155l208.6-105.3c112.9-57.4,277.5-124.4,365.6-149.3l157-45.9v-225.9v-225.9h402h402v225.9v225.9l158.9,45.9c86.1,24.9,250.8,91.9,363.7,149.3l208.6,105.3l155-155l157-157l283.3,283.3l281.4,281.4l-157,157l-155,155l105.3,208.6c57.4,112.9,124.4,277.5,149.3,365.6l45.9,157h225.8H9900v402v402h-225.9h-225.8l-45.9,158.9c-24.9,86.1-91.9,250.7-149.3,363.7l-105.3,208.6l155,155l157,157l-281.4,281.4l-283.3,283.3l-155-155.1l-157-155l-235.4,114.8c-130.2,65.1-294.8,132.1-365.6,149.3L7852-331.9v227.8v227.8h-402h-402V-102.2z M7652.9-1530.1c449.8-118.7,717.8-591.4,583.8-1024c-47.9-156.9-114.8-264.1-227.8-369.4c-415.4-388.6-1062.3-256.5-1311.1,266.1c-57.4,120.6-61.3,145.5-61.3,333c0,193.3,1.9,206.7,70.8,344.5c38.3,78.5,109.1,181.8,158.9,231.6c97.6,97.6,268,197.1,384.7,223.9C7363.9-1497.6,7543.8-1501.4,7652.9-1530.1z"/></g></g>
</svg>